<svg width="20" height="20" viewBox="0 0 20 20" fill="none" xmlns="http://www.w3.org/2000/svg">
<circle cx="10" cy="10" r="10" fill="#36B37E" fill-opacity="0.2"/>
<path d="M14.84 7.12395L14.5124 6.79639C14.4095 6.69339 14.2723 6.63672 14.1258 6.63672C13.9793 6.63672 13.8419 6.69339 13.739 6.79639L9.13634 11.399L6.26065 8.52322C6.15772 8.42038 6.02041 8.36363 5.8739 8.36363C5.72748 8.36363 5.59024 8.42038 5.48724 8.52322L5.15959 8.8507C5.05659 8.95387 5 9.09127 5 9.23761C5 9.38404 5.05659 9.52135 5.15959 9.62436L8.40642 12.871C8.41073 12.8771 8.41528 12.8828 8.42057 12.888L8.74821 13.2102C8.85114 13.3128 8.98845 13.3641 9.1361 13.3641H9.1378C9.28439 13.3641 9.42171 13.3128 9.52447 13.2102L9.85219 12.8852C9.85748 12.88 9.86195 12.8757 9.86463 12.8713L14.8399 7.89648C15.0533 7.68355 15.0533 7.33713 14.84 7.12395Z" fill="#36B37E"/>
</svg>
